<?xml version="1.0" standalone="no"?>
<!DOCTYPE svg PUBLIC "-//W3C//DTD SVG 20010904//EN"
 "http://www.w3.org/TR/2001/REC-SVG-20010904/DTD/svg10.dtd">
<svg version="1.0" xmlns="http://www.w3.org/2000/svg"
 width="1280.000000pt" height="1280.000000pt" viewBox="0 0 1280.000000 1280.000000"
 preserveAspectRatio="xMidYMid meet">
<metadata>
Created by potrace 1.14, written by Peter Selinger 2001-2017
</metadata>
<g transform="translate(0.000000,1280.000000) scale(0.100000,-0.100000)"
fill="#000000" stroke="none">
<path d="M855 12281 c-91 -26 -143 -58 -211 -125 -192 -192 -192 -480 0 -672
193 -193 479 -193 672 0 192 192 192 480 0 672 -125 125 -299 172 -461 125z
m269 -261 c115 -29 195 -68 202 -97 4 -16 1 -30 -10 -41 -15 -16 -20 -15 -64
2 -139 53 -201 66 -330 66 -69 0 -152 -5 -183 -12 -46 -9 -61 -9 -73 1 -19 16
-21 57 -4 67 60 38 338 46 462 14z m-7 -173 c101 -35 137 -57 141 -89 4 -36
-26 -44 -75 -20 -115 59 -267 80 -393 56 -63 -12 -85 -12 -96 -3 -35 29 -11
57 67 74 96 22 264 13 356 -18z m-63 -143 c76 -19 140 -53 144 -78 6 -32 -18
-35 -75 -10 -29 13 -75 29 -101 35 -57 13 -179 13 -247 0 -54 -10 -83 3 -72
33 14 35 239 48 351 20z"/>
<path d="M6521 10919 c-75 -16 -129 -89 -116 -156 10 -56 49 -87 133 -107 47
-12 77 -25 86 -38 44 -62 -73 -110 -129 -53 -14 13 -25 31 -25 40 0 13 -6 15
-32 10 -18 -4 -37 -11 -42 -15 -14 -14 2 -57 34 -89 69 -69 197 -67 259 5 26
29 31 43 31 84 0 68 -44 113 -127 130 -73 15 -103 34 -103 65 0 58 85 73 131
24 27 -29 31 -30 64 -19 19 6 34 15 32 18 -21 46 -36 66 -61 81 -38 22 -90 30
-135 20z"/>
<path d="M7525 10921 c-72 -18 -115 -69 -115 -139 0 -64 48 -110 130 -126 62
-13 90 -28 96 -53 16 -62 -83 -88 -135 -35 -15 15 -30 33 -32 41 -4 12 -11 12
-42 2 -32 -11 -37 -16 -32 -34 12 -40 41 -72 85 -94 118 -61 260 16 246 132
-7 59 -55 98 -142 118 -62 15 -94 35 -94 59 0 5 11 20 25 33 33 34 70 32 107
-5 26 -26 34 -29 61 -22 26 7 31 13 29 32 -7 62 -107 110 -187 91z"/>
<path d="M5060 10875 l0 -45 70 0 70 0 0 -180 0 -180 40 0 40 0 0 180 0 180
70 0 70 0 0 45 0 45 -180 0 -180 0 0 -45z"/>
<path d="M5567 10913 c-4 -3 -7 -105 -7 -225 l0 -218 45 0 44 0 3 93 3 92 95
0 95 0 3 -92 3 -93 39 0 40 0 0 225 0 225 -40 0 -40 0 0 -90 0 -90 -100 0
-100 0 0 90 0 90 -38 0 c-21 0 -42 -3 -45 -7z"/>
<path d="M6130 10695 l0 -225 45 0 45 0 0 225 0 225 -45 0 -45 0 0 -225z"/>
<path d="M7140 10696 l0 -226 45 0 45 0 -2 223 -3 222 -42 3 -43 3 0 -225z"/>
<path d="M6590 9555 l0 -435 75 0 75 0 0 32 0 31 23 -21 c58 -55 180 -69 262
-31 61 29 127 104 148 169 22 67 22 173 0 240 -21 65 -89 142 -145 165 -85 34
-207 17 -265 -37 l-23 -21 0 171 0 172 -75 0 -75 0 0 -435z m372 8 c43 -26 68
-81 68 -150 0 -102 -62 -168 -152 -160 -62 5 -96 29 -120 85 -24 53 -20 137 7
178 39 60 135 83 197 47z"/>
<path d="M4410 9545 l0 -425 270 0 271 0 -3 78 -3 77 -182 3 -183 2 0 95 0 95
165 0 165 0 0 75 0 75 -165 0 -165 0 0 95 0 95 183 2 182 3 3 78 3 77 -271 0
-270 0 0 -425z"/>
<path d="M5620 9836 c0 -88 -29 -126 -95 -126 -24 0 -25 -2 -25 -70 l0 -70 55
0 55 0 0 -162 c0 -137 3 -169 19 -204 31 -68 112 -104 206 -90 l45 7 0 67 0
67 -39 0 c-68 1 -71 9 -71 171 l0 144 55 0 55 0 0 70 0 70 -55 0 -54 0 -3 88
-3 87 -72 3 -73 3 0 -55z"/>
<path d="M5161 9716 c-80 -27 -141 -105 -141 -181 0 -92 56 -147 188 -182 93
-24 124 -47 115 -84 -9 -31 -62 -51 -106 -38 -32 9 -70 42 -79 70 -4 11 -125
-7 -133 -20 -2 -4 4 -25 14 -47 66 -147 310 -179 414 -54 74 87 52 211 -47
266 -20 12 -72 29 -114 38 -89 20 -102 28 -102 68 0 24 6 32 36 44 47 20 98 4
119 -37 18 -33 13 -32 85 -15 32 7 56 19 58 27 6 30 -55 106 -102 129 -58 28
-147 35 -205 16z"/>
<path d="M6132 9716 c-105 -34 -179 -123 -201 -238 -19 -105 12 -214 81 -285
133 -136 372 -114 460 44 l29 51 -55 16 c-30 9 -61 19 -69 22 -8 3 -18 -6 -25
-21 -16 -35 -69 -65 -117 -65 -69 0 -132 45 -150 108 l-6 22 210 0 c239 0 229
-4 215 87 -17 123 -63 197 -147 238 -66 32 -164 41 -225 21z m141 -130 c39
-16 63 -42 72 -78 l7 -28 -131 0 c-119 0 -131 2 -131 18 0 43 71 102 123 102
15 0 42 -6 60 -14z"/>
<path d="M7413 9712 c-66 -24 -116 -62 -136 -104 -29 -63 -27 -70 28 -84 75
-20 92 -18 99 11 9 34 61 65 109 65 29 0 46 -7 68 -29 34 -34 35 -42 12 -69
-13 -14 -45 -24 -122 -36 -129 -20 -184 -49 -211 -109 -10 -23 -17 -43 -15
-45 2 -2 39 13 82 34 43 20 91 39 108 41 16 2 38 6 47 9 22 7 22 5 2 -35 -12
-24 -21 -31 -35 -28 -11 3 -19 0 -19 -8 0 -7 -7 -15 -15 -19 -8 -3 -15 -13
-15 -23 0 -10 -7 -26 -15 -36 -13 -18 -14 -17 -30 12 -19 38 -32 39 -47 6 -13
-29 -28 -33 -28 -8 0 15 -2 15 -14 -3 -8 -11 -16 -31 -18 -44 -2 -20 -9 -25
-33 -25 -22 0 -33 -7 -43 -27 -7 -15 -28 -35 -47 -43 -20 -10 -36 -26 -40 -42
-3 -14 -12 -32 -20 -39 -12 -12 -15 -11 -21 8 -12 41 -22 47 -55 34 -35 -13
-124 -94 -161 -146 -38 -54 -68 -134 -73 -196 -3 -50 -8 -59 -42 -89 -21 -18
-51 -58 -67 -88 -15 -30 -37 -64 -48 -74 -28 -26 -54 -80 -63 -133 -4 -25 -15
-59 -26 -75 -10 -17 -23 -66 -29 -110 -6 -44 -15 -102 -20 -130 -5 -27 -12
-70 -16 -95 -3 -25 -11 -50 -16 -56 -21 -28 -40 -515 -23 -611 4 -24 14 -51
21 -60 11 -15 13 -2 14 92 0 93 26 325 46 414 11 46 38 101 50 101 6 0 17 7
24 15 7 8 25 15 40 15 16 0 30 4 32 10 7 22 47 -3 54 -33 6 -29 7 -30 21 -12
13 19 14 19 20 -3 3 -13 12 -21 22 -20 23 4 28 -52 6 -68 -14 -10 -12 -13 16
-23 24 -8 30 -15 26 -30 -3 -11 0 -22 7 -24 21 -8 -9 -28 -43 -29 -20 -1 -27
-4 -20 -9 10 -6 10 -13 2 -32 -9 -18 -8 -28 0 -37 9 -10 9 -14 0 -17 -24 -9
-13 -31 17 -38 17 -4 36 -16 43 -28 6 -12 18 -22 26 -22 7 0 22 -15 31 -33 11
-20 21 -29 25 -22 4 6 15 8 26 5 10 -4 19 -2 19 3 0 13 49 22 56 10 3 -5 0
-15 -6 -24 -7 -8 -10 -28 -7 -47 5 -32 4 -33 -24 -29 -23 3 -30 0 -38 -21 -8
-20 -17 -25 -39 -25 -17 1 -44 -10 -64 -26 -24 -18 -47 -26 -74 -26 -21 0 -61
-7 -87 -15 -26 -8 -66 -15 -88 -17 -27 -1 -43 -7 -46 -18 -2 -8 -9 -23 -14
-32 -19 -37 -10 -78 23 -109 18 -16 39 -29 47 -29 7 0 31 -5 51 -11 35 -11 38
-15 43 -57 3 -27 -1 -58 -9 -78 -25 -59 -15 -124 21 -138 11 -4 28 6 48 28 32
33 107 63 127 51 5 -3 1 -20 -10 -38 -34 -56 -25 -132 22 -183 19 -21 19 -22
-8 -43 -15 -11 -31 -21 -35 -21 -17 0 -9 -46 11 -68 11 -12 20 -30 20 -42 0
-11 5 -20 10 -20 6 0 20 -10 31 -21 18 -18 21 -30 16 -73 -3 -28 -3 -64 0 -79
5 -25 8 -27 37 -21 37 8 86 40 86 57 0 7 14 21 30 32 16 11 30 24 30 29 0 5 7
3 15 -4 28 -24 54 -3 61 51 4 27 11 52 15 55 5 3 9 12 9 20 0 19 42 84 55 84
6 0 9 -17 7 -40 -2 -22 -9 -40 -14 -40 -6 0 0 -8 12 -18 19 -16 21 -22 11 -40
-6 -12 -19 -22 -29 -23 -10 -1 -7 -4 8 -8 22 -6 24 -11 22 -48 -3 -37 -1 -42
20 -46 18 -3 17 -4 -4 -2 -15 1 -29 -4 -32 -11 -3 -8 -17 -16 -31 -20 -28 -7
-34 -24 -7 -24 10 0 13 -3 6 -8 -16 -10 -15 -72 1 -94 10 -16 10 -24 0 -46 -7
-15 -16 -39 -19 -55 -5 -22 -2 -29 15 -36 16 -5 19 -10 10 -15 -6 -4 -19 -2
-27 5 -22 18 -28 4 -11 -30 9 -18 11 -33 6 -37 -5 -3 -9 -17 -9 -32 0 -15 -5
-34 -10 -42 -6 -10 -3 -26 11 -50 12 -19 15 -29 8 -22 -7 6 -21 12 -30 12 -9
0 -22 7 -29 15 -22 27 -48 18 -55 -18 -17 -88 13 -134 57 -87 l21 22 19 -31
c11 -17 25 -31 31 -31 7 0 -5 -12 -26 -27 -36 -26 -47 -43 -27 -43 6 0 10 -4
10 -10 0 -5 -6 -10 -14 -10 -8 0 -16 -16 -19 -42 -3 -23 -13 -47 -21 -54 -9
-6 -16 -15 -16 -21 0 -5 -13 -22 -29 -37 -38 -37 -58 -83 -42 -99 6 -6 11 -24
11 -39 0 -19 5 -28 16 -28 12 0 14 -5 9 -17 -4 -10 -7 -27 -7 -37 1 -11 -3
-27 -8 -36 -6 -11 -5 -30 1 -51 6 -19 12 -44 14 -57 2 -13 7 -28 13 -35 5 -7
14 -39 21 -72 7 -33 17 -72 22 -86 8 -20 6 -34 -9 -60 -14 -27 -16 -42 -10
-69 5 -19 9 -46 9 -59 -1 -13 4 -30 10 -38 7 -7 10 -16 7 -18 -7 -7 -85 73
-114 115 -27 40 -41 105 -49 226 -9 147 -78 399 -209 764 -130 360 -129 359
-131 635 l0 200 -42 85 c-41 85 -89 215 -118 323 -44 167 -62 245 -70 317 -11
103 -23 388 -18 428 l6 42 -3187 0 -3186 0 0 -3840 0 -3840 6400 0 6400 0 0
921 c0 957 0 949 -38 949 -6 0 -13 7 -16 16 -4 9 -13 14 -21 10 -18 -7 -20 15
-3 32 9 9 17 7 34 -9 12 -12 27 -18 33 -14 17 10 14 115 -4 121 -8 3 -17 14
-20 24 -3 11 -16 22 -28 25 -42 13 -126 55 -134 68 -4 7 -23 22 -41 33 l-33
21 26 19 c14 10 25 27 25 36 0 42 -154 148 -237 164 -18 3 -33 10 -33 14 0 14
190 -4 345 -34 44 -9 95 -16 113 -16 l32 0 0 2650 0 2650 -1414 0 -1413 0 -7
-177 c-4 -98 -12 -194 -17 -213 -11 -37 -9 -142 10 -490 10 -184 9 -236 -4
-360 -9 -80 -20 -158 -26 -174 -5 -16 -9 -50 -9 -75 0 -25 -7 -55 -15 -65 -15
-19 -15 -19 -15 2 0 13 -7 25 -15 28 -17 7 -21 49 -5 59 6 3 6 15 0 30 -6 15
-6 27 0 30 6 4 10 15 10 26 0 16 -5 19 -20 14 -33 -10 -44 4 -22 29 30 32 34
58 12 84 -10 12 -22 22 -28 22 -5 0 -12 25 -16 55 -5 45 -2 63 15 96 11 23 18
44 14 47 -9 10 -59 -24 -70 -47 -9 -20 -35 -30 -35 -13 0 4 11 24 25 45 21 29
23 37 10 37 -21 0 -30 27 -15 45 10 12 7 15 -12 20 -26 7 -31 36 -10 57 30 30
7 83 -32 76 -23 -5 -25 -2 -22 24 1 16 8 34 14 40 17 17 15 41 -3 35 -20 -8
-28 9 -15 33 9 16 8 22 -5 26 -8 3 -15 14 -15 23 0 9 -13 31 -30 49 l-29 33
20 20 c20 20 20 21 2 42 -25 31 -34 36 -50 30 -7 -3 -13 2 -13 11 0 9 4 16 9
16 5 0 11 6 14 14 4 10 0 12 -14 9 -15 -4 -18 -2 -13 11 3 9 10 16 15 16 5 0
9 9 9 20 0 13 -7 20 -20 20 -13 0 -20 7 -20 20 0 12 -10 24 -22 30 -13 5 -17
9 -10 9 21 1 14 41 -8 41 -26 0 -25 8 2 37 21 23 21 23 1 23 -12 0 -23 7 -27
15 -3 8 -12 15 -21 15 -18 0 -20 31 -3 48 6 6 9 15 5 19 -4 4 -13 1 -19 -5
-21 -21 -38 -13 -38 18 0 22 6 33 23 40 l22 9 -22 0 c-13 1 -23 5 -23 10 0 6
-15 11 -32 13 -27 2 -32 7 -30 23 2 11 11 29 20 39 16 18 16 19 -11 14 -36 -7
-47 15 -22 42 17 19 17 20 -6 39 -13 11 -31 20 -40 21 -9 0 -20 8 -23 18 -13
32 -51 82 -63 82 -7 0 -13 5 -13 10 0 13 13 13 28 -2 8 -8 15 -8 27 2 21 18
19 28 -7 32 -15 2 -24 11 -26 26 -4 25 -12 28 -31 10 -11 -11 -13 -6 -8 25 6
38 -7 49 -30 26 -18 -18 -35 -1 -22 22 11 21 6 51 -8 47 -15 -3 -84 32 -79 40
3 5 -5 24 -17 43 -12 19 -27 43 -33 54 -6 11 -23 21 -38 23 -21 3 -26 8 -26
32 0 16 -5 32 -10 35 -6 4 -8 10 -5 15 3 5 -6 12 -20 16 -16 4 -25 13 -25 25
0 11 -6 22 -14 25 -8 3 -16 14 -19 25 -4 15 -12 19 -34 17 -26 -3 -28 -1 -25
29 2 30 0 32 -21 24 -33 -13 -52 1 -38 26 8 17 5 25 -18 47 -18 18 -31 24 -35
17 -4 -6 -16 -11 -27 -11 -15 0 -20 6 -17 23 2 22 -7 28 -29 20 -21 -8 -44 6
-43 24 3 29 -11 63 -26 63 -8 0 -11 -6 -8 -15 5 -11 -1 -15 -19 -15 -18 0 -27
7 -31 25 -4 14 -4 30 -1 35 3 5 -4 10 -16 12 -12 2 -25 10 -30 18 -23 45 -69
150 -69 158 0 15 -55 59 -69 54 -12 -4 -51 30 -51 45 0 4 -9 19 -19 32 -15 20
-21 22 -40 11 -15 -7 -21 -18 -18 -29 5 -20 -28 -70 -39 -59 -4 4 -9 30 -12
58 l-5 50 -23 -50 c-16 -35 -29 -50 -43 -50 -11 0 -23 5 -26 10 -3 6 -17 10
-29 10 -15 0 -26 7 -29 20 -3 11 -11 20 -19 20 -7 0 -18 12 -25 26 -10 21 -9
30 4 50 14 22 14 24 -1 18 -11 -4 -16 -1 -16 11 0 11 -5 15 -16 11 -10 -4 -18
3 -26 24 -5 17 -14 30 -18 30 -5 0 -24 -19 -44 -41 -30 -35 -38 -40 -51 -29
-12 10 -16 8 -24 -13 -5 -14 -15 -28 -20 -32 -13 -8 -31 36 -31 76 0 18 -4 28
-10 24 -5 -3 -10 -18 -10 -33 0 -30 -37 -72 -45 -50 -2 7 -9 46 -15 85 -7 40
-16 75 -21 79 -5 3 -9 13 -9 22 0 14 8 17 45 14 25 -2 45 -8 45 -12 0 -5 24
-13 52 -20 29 -6 63 -13 76 -17 l24 -6 -3 131 c-4 126 -5 132 -34 173 -60 85
-200 121 -312 81z m1027 -1406 c0 -3 -4 -8 -10 -11 -5 -3 -10 -1 -10 4 0 6 5
11 10 11 6 0 10 -2 10 -4z m21 -69 c-13 -13 -15 1 -4 30 7 17 8 17 11 -1 2
-10 -1 -23 -7 -29z m146 11 c13 -12 23 -31 23 -44 0 -12 7 -27 15 -34 8 -7 15
-20 15 -30 0 -9 12 -22 26 -28 19 -9 24 -17 19 -32 -4 -14 -2 -20 9 -20 8 0
31 -19 50 -43 19 -24 47 -49 61 -57 16 -8 25 -22 25 -37 0 -13 5 -23 10 -23 6
0 10 -6 10 -13 0 -7 26 -31 58 -52 55 -36 105 -91 101 -111 -4 -25 3 -40 23
-49 13 -6 25 -22 28 -40 4 -16 19 -49 33 -72 15 -24 27 -53 27 -66 0 -13 4
-27 9 -32 13 -15 38 -102 51 -175 10 -58 19 -86 65 -195 31 -75 44 -114 54
-170 34 -179 68 -285 91 -285 6 0 10 -16 10 -35 0 -24 5 -35 15 -35 8 0 15 6
15 13 1 6 10 -9 22 -35 17 -40 24 -47 42 -42 29 7 39 -7 62 -79 10 -32 26 -63
36 -68 14 -8 16 -18 12 -54 -9 -59 1 -95 26 -95 27 0 25 -25 -2 -45 -21 -14
-23 -23 -21 -86 1 -64 0 -69 -17 -64 -26 8 -32 -29 -24 -161 12 -213 11 -348
-3 -399 -16 -63 -16 -143 0 -175 7 -14 32 -35 55 -46 53 -26 76 -47 113 -101
32 -46 36 -63 16 -63 -7 0 -19 -16 -27 -35 -8 -19 -17 -35 -21 -35 -3 0 -4
-19 -2 -43 5 -46 3 -49 -56 -97 -17 -13 -36 -37 -42 -52 -14 -35 -29 -32 -48
10 l-14 32 -29 -112 c-22 -88 -35 -120 -64 -157 -40 -50 -174 -180 -186 -181
-14 0 -8 46 11 86 11 21 17 41 15 43 -5 6 -33 -31 -34 -44 0 -6 -10 -16 -21
-24 -20 -12 -21 -11 -17 13 3 15 2 29 -3 31 -13 9 -49 -47 -50 -79 -1 -21 -3
-24 -6 -10 -8 39 -49 47 -150 29 -30 -5 -43 -4 -43 4 0 6 6 14 14 17 8 3 11
15 8 29 -3 17 5 34 32 61 20 20 36 46 36 56 0 11 5 29 12 41 7 12 13 28 14 34
1 7 16 24 33 39 17 14 31 32 31 40 0 9 4 13 9 10 5 -3 22 20 37 52 16 31 41
67 57 80 15 13 27 28 27 33 0 6 9 19 19 30 11 12 22 32 26 46 3 14 18 41 32
59 15 21 28 52 31 80 5 44 4 46 -15 35 -11 -5 -23 -7 -27 -4 -12 12 -6 50 12
74 16 22 18 41 13 136 -1 9 -7 7 -21 -4 -17 -15 -19 -25 -13 -70 5 -44 3 -54
-11 -59 -10 -4 -15 -13 -12 -20 8 -20 -4 -44 -20 -44 -10 0 -14 -14 -14 -49 0
-57 -8 -84 -22 -75 -6 4 -14 0 -19 -7 -4 -7 -11 -10 -16 -6 -4 4 -2 17 5 27 7
11 12 35 12 53 0 18 5 38 10 43 6 6 14 24 19 42 10 35 -5 57 -32 46 -17 -6
-37 23 -37 55 0 12 -3 21 -8 21 -11 0 -54 -99 -48 -109 3 -5 -8 -26 -24 -46
-17 -21 -33 -49 -36 -62 -5 -20 -11 -23 -34 -18 -22 5 -32 0 -53 -24 -14 -17
-28 -45 -32 -63 l-7 -32 -22 24 c-12 14 -32 34 -44 44 l-23 20 -30 -37 c-27
-32 -36 -37 -74 -37 -25 0 -46 5 -49 13 -3 6 -3 0 1 -16 6 -31 -4 -30 -64 5
-30 18 -31 21 -29 76 4 94 0 105 -53 131 -43 20 -49 28 -64 75 -21 65 -21 77
-1 69 12 -4 14 0 8 23 -3 16 -13 34 -20 40 -8 6 -14 28 -14 48 0 24 -5 39 -16
43 -8 3 -13 12 -10 19 3 8 1 26 -5 41 -9 23 -7 30 13 45 19 15 20 18 6 18 -10
0 -18 7 -18 15 0 9 9 15 24 15 14 0 28 4 31 10 10 17 -28 59 -54 60 -22 0 -23
3 -18 40 3 27 1 43 -9 51 -8 7 -13 18 -10 25 2 6 -4 14 -15 17 -14 4 -19 14
-19 36 0 29 -3 31 -35 31 -47 0 -45 20 3 22 l37 1 -38 4 c-21 2 -41 11 -44 19
-9 24 7 81 25 88 33 12 57 31 57 46 0 11 10 14 37 12 44 -3 73 10 89 40 9 17
9 20 -3 16 -22 -9 -10 60 14 77 19 13 40 41 53 75 4 8 14 32 23 53 16 40 88
107 113 107 25 0 65 82 73 150 2 14 5 27 6 30 1 3 1 13 0 24 -1 10 8 29 21 42
12 13 23 35 25 49 1 15 5 29 7 32 10 9 -16 67 -39 88 -13 12 -28 34 -33 48 -6
15 -16 27 -23 27 -7 0 -18 10 -23 23 -6 12 -26 27 -45 34 -19 6 -68 44 -109
82 -40 39 -80 71 -87 71 -8 0 -16 10 -18 23 -3 12 -7 31 -9 42 -4 18 -5 18 -6
-2 -2 -38 -19 -35 -66 11 -43 41 -45 45 -26 51 23 7 27 21 9 28 -7 3 -1 6 13
6 15 1 32 -6 40 -15 12 -14 14 -14 26 2 12 16 13 16 13 1 0 -22 62 -23 80 -2
7 9 19 14 26 11 7 -3 16 3 19 14 7 23 35 35 35 15 0 -8 9 -15 20 -15 28 0 26
38 -5 73 -16 18 -34 27 -55 27 -24 0 -33 6 -42 28 -52 126 -87 165 -147 168
-20 0 -47 2 -61 3 -14 0 -38 12 -53 26 -20 20 -27 22 -27 10 0 -33 -49 -26
-50 7 0 9 79 48 97 48 7 0 19 11 25 25 12 28 60 42 104 31 34 -9 47 10 28 39
-10 15 -22 21 -37 18 -14 -3 -29 2 -36 11 -12 14 -10 16 15 15 16 0 50 -4 77
-8 42 -7 47 -6 47 11 0 10 -6 18 -14 18 -8 0 -17 14 -21 30 -7 31 -20 39 -28
18 -3 -7 -6 -3 -6 10 -1 12 5 22 12 23 26 2 63 -3 81 -13 31 -17 41 7 11 26
-25 16 -25 19 -11 35 16 18 22 71 8 71 -4 0 -18 20 -30 45 -14 30 -26 43 -36
39 -8 -3 -17 0 -21 6 -9 14 14 32 33 25 18 -7 42 5 42 21 0 21 31 17 57 -8z
m-177 -38 c0 -5 -5 -10 -11 -10 -5 0 -7 5 -4 10 3 6 8 10 11 10 2 0 4 -4 4
-10z m66 -136 c9 -12 14 -11 29 6 25 27 37 25 24 -4 -16 -34 -55 -39 -86 -10
-13 12 -32 25 -41 27 -9 2 1 2 23 0 22 -3 45 -11 51 -19z m-441 -373 c3 -5 1
-12 -5 -16 -5 -3 -10 1 -10 9 0 18 6 21 15 7z m-92 -8 c-7 -2 -19 -2 -25 0 -7
3 -2 5 12 5 14 0 19 -2 13 -5z m245 -31 c2 -7 -6 -12 -17 -12 -21 0 -27 11
-14 24 9 9 26 2 31 -12z m-1411 -68 c-3 -3 -12 -4 -19 -1 -8 3 -5 6 6 6 11 1
17 -2 13 -5z m837 -93 c7 -10 -29 -59 -37 -51 -3 3 -3 17 0 33 5 26 26 36 37
18z m-62 -33 c-9 -9 -15 -9 -24 0 -9 9 -7 12 12 12 19 0 21 -3 12 -12z m-2
-27 c0 -14 -18 -23 -30 -16 -6 4 -8 11 -5 16 8 12 35 12 35 0z m-15 -41 c3 -5
-3 -10 -15 -10 -12 0 -18 5 -15 10 3 6 10 10 15 10 5 0 12 -4 15 -10z m-495
-61 c0 -5 -7 -9 -15 -9 -9 0 -15 9 -15 21 0 18 2 19 15 9 8 -7 15 -16 15 -21z
m91 21 c5 0 9 -16 9 -35 0 -30 -3 -35 -24 -35 -31 0 -37 10 -30 50 5 22 11 29
21 26 8 -4 19 -6 24 -6z m1116 -46 c-3 -3 -12 -4 -19 -1 -8 3 -5 6 6 6 11 1
17 -2 13 -5z m-127 -351 c0 -4 -11 -23 -25 -43 -20 -29 -25 -48 -26 -113 -1
-58 -5 -77 -15 -77 -8 0 -14 10 -14 21 0 12 -13 37 -30 56 -40 45 -40 86 0
123 27 25 45 32 98 39 6 0 12 -2 12 -6z m292 -60 c29 -26 23 -68 -15 -97 -19
-15 -39 -26 -44 -26 -6 0 -14 28 -17 63 -4 34 -10 72 -13 85 l-5 23 38 -16
c21 -9 46 -23 56 -32z m-974 -120 c-3 -30 -25 -42 -34 -19 -9 22 2 46 21 46
12 0 15 -8 13 -27z m-78 7 c0 -5 -4 -10 -10 -10 -5 0 -10 5 -10 10 0 6 5 10
10 10 6 0 10 -4 10 -10z m1150 -6 c0 -33 -31 -74 -56 -74 -19 0 -24 43 -8 67
17 27 64 32 64 7z m-1115 -46 c30 -14 32 -24 5 -33 -23 -7 -50 10 -50 31 0 17
11 18 45 2z m85 -18 c0 -5 -7 -10 -15 -10 -8 0 -15 5 -15 10 0 6 7 10 15 10 8
0 15 -4 15 -10z m1273 -15 c4 -8 2 -17 -3 -20 -6 -4 -10 3 -10 14 0 25 6 27
13 6z m-1476 -17 c-3 -8 -6 -5 -6 6 -1 11 2 17 5 13 3 -3 4 -12 1 -19z m186
-80 c9 0 17 -3 17 -9 0 -5 11 -19 24 -30 13 -12 27 -31 30 -44 3 -13 22 -37
41 -54 19 -17 35 -34 35 -40 0 -11 65 -61 80 -61 7 0 10 -7 6 -15 -8 -23 23
-68 70 -100 28 -19 40 -33 34 -40 -11 -13 -1 -55 17 -74 8 -7 12 -15 11 -17
-2 -1 -45 -8 -96 -15 -96 -12 -98 -14 -93 -64 1 -11 8 -23 16 -28 8 -4 15 -18
15 -30 0 -13 4 -27 9 -33 9 -9 14 -37 12 -61 0 -7 -19 -16 -41 -19 -22 -4 -43
-11 -46 -15 -3 -5 -25 -9 -50 -9 -25 0 -56 -7 -69 -16 -40 -26 -109 -27 -131
-3 -16 17 -16 22 -4 30 11 7 7 8 -12 3 -30 -7 -36 4 -15 24 8 9 12 47 13 109
1 70 4 98 14 101 9 3 6 9 -9 16 l-21 12 20 22 c26 27 26 59 0 67 -11 3 -19 9
-19 13 5 34 -3 60 -21 65 -31 8 -28 70 5 91 22 14 23 19 12 37 -10 17 -9 22 6
33 9 7 17 25 17 38 0 20 -6 27 -31 32 -34 7 -30 26 6 26 34 0 55 10 55 27 0 9
6 13 14 10 9 -4 16 2 19 15 4 15 10 19 24 13 10 -4 26 -7 36 -7z m2231 -525
c3 -16 8 -54 12 -85 4 -41 13 -63 30 -79 25 -24 26 -23 39 34 3 16 11 27 18
24 17 -5 21 -73 5 -108 -14 -34 -72 -69 -113 -69 -28 0 -30 3 -13 30 9 14 9
25 1 42 -45 99 -45 238 2 238 7 0 16 -12 19 -27z m183 -65 c-2 -18 -4 -6 -4
27 0 33 2 48 4 33 2 -15 2 -42 0 -60z m-1677 53 c0 -6 -4 -13 -10 -16 -5 -3
-10 1 -10 9 0 9 5 16 10 16 6 0 10 -4 10 -9z m-380 -151 c35 -35 39 -100 6
-100 -8 0 -26 4 -40 10 -23 8 -26 15 -26 60 0 43 3 50 20 50 11 0 29 -9 40
-20z m1395 -717 c-3 -10 -11 -40 -16 -68 -10 -52 -29 -85 -29 -49 0 11 5 25
11 31 8 8 8 13 0 17 -17 11 -13 28 12 58 26 32 32 35 22 11z m585 -195 c0 -10
5 -18 10 -18 6 0 10 -8 10 -18 0 -10 4 -22 8 -27 5 -6 14 -30 21 -55 7 -25 17
-53 23 -63 8 -16 6 -18 -11 -12 -32 10 -61 -3 -61 -28 0 -19 -3 -18 -21 10
-19 29 -19 37 -9 114 6 46 9 99 5 118 -6 34 -6 35 9 16 8 -11 16 -28 16 -37z
m464 -178 c31 -12 90 -91 107 -145 32 -101 58 -142 123 -195 78 -63 106 -115
135 -247 12 -51 21 -95 21 -97 0 -3 -46 41 -103 97 -57 56 -124 118 -150 137
-31 23 -46 43 -47 58 0 21 -3 22 -37 15 -85 -18 -183 2 -183 38 0 28 -31 82
-42 71 -6 -6 -19 -5 -36 4 -15 7 -47 14 -72 15 -25 1 -48 4 -52 6 -15 8 66
144 102 173 82 65 175 93 234 70z m-2636 -61 c2 -12 -6 -18 -28 -21 -35 -5
-47 6 -29 28 16 19 53 14 57 -7z m-418 -517 c-1 -16 -19 -34 -29 -28 -7 5 -7
12 1 26 11 17 28 18 28 2z m3593 -207 c84 -41 137 -76 212 -140 55 -47 121
-102 147 -123 79 -61 136 -211 114 -298 l-7 -28 -39 42 c-22 23 -46 42 -55 42
-9 0 -18 6 -21 14 -3 8 -12 12 -19 10 -7 -3 -16 -1 -20 5 -3 6 -16 11 -29 11
-14 0 -27 9 -34 24 -5 13 -33 41 -60 62 -28 21 -55 49 -61 62 -6 12 -22 27
-36 32 -29 11 -78 63 -115 123 -20 32 -33 41 -60 44 -42 4 -47 9 -55 53 -5 27
-2 40 13 55 14 15 17 27 11 43 -5 12 -6 22 -3 22 3 0 56 -25 117 -55z m-3897
-292 c-4 -21 -13 -72 -21 -113 -8 -41 -20 -120 -26 -175 -6 -55 -15 -104 -21
-110 -9 -9 -7 109 5 325 2 39 -19 50 -57 32 -45 -22 -158 -63 -162 -59 -15 15
225 131 280 136 5 1 6 -16 2 -36z m-296 -110 c0 -8 -27 -25 -135 -88 -133 -77
-171 -103 -206 -137 -37 -36 -75 -55 -86 -44 -7 6 48 55 63 56 5 0 19 8 30 18
26 24 141 102 151 102 4 0 23 13 42 29 18 16 51 34 73 42 21 7 41 16 44 21 6
10 24 11 24 1z m4544 -227 c57 -34 152 -138 142 -154 -10 -16 -56 -21 -56 -6
0 7 -9 16 -20 19 -12 4 -20 15 -20 29 0 21 -63 83 -101 98 -10 4 -23 16 -29
27 -17 33 18 27 84 -13z m136 10 c0 -8 6 -16 13 -19 22 -8 2 -15 -30 -10 -28
5 -31 8 -22 24 11 22 39 25 39 5z m344 -97 c22 -6 56 -22 76 -35 35 -24 129
-124 195 -210 17 -21 51 -62 78 -91 43 -48 52 -67 48 -99 -1 -9 25 -20 97 -40
6 -2 12 -10 12 -17 0 -22 -139 -10 -162 14 -24 24 -23 29 7 29 16 0 25 6 25
15 0 8 -5 15 -11 15 -6 0 -27 18 -47 41 -20 23 -53 49 -74 60 -20 10 -38 23
-40 29 -2 6 -39 11 -93 11 -50 1 -97 5 -106 10 -9 4 -19 5 -23 2 -9 -10 -78
-4 -155 12 -39 8 -74 10 -92 5 -29 -8 -59 7 -59 30 0 5 -17 8 -37 7 -33 -2
-38 1 -35 18 2 11 3 27 4 35 2 27 39 65 81 82 33 12 38 18 25 23 -16 6 -16 8
-1 23 9 9 26 22 37 28 27 15 199 17 250 3z m0 -303 c18 7 52 -34 39 -47 -13
-13 -59 5 -72 29 -11 21 -3 38 12 23 5 -5 15 -7 21 -5z m562 -135 c43 -21 95
-51 114 -66 39 -30 40 -30 -70 -3 -66 17 -91 32 -116 69 -10 16 -26 30 -34 33
-9 2 -7 4 6 5 11 0 56 -17 100 -38z m152 -129 c15 -10 43 -26 62 -35 31 -14
203 -167 189 -167 -3 0 -21 7 -40 16 -91 43 -119 53 -184 70 -38 9 -87 19
-107 22 -55 6 -51 32 5 32 64 0 76 13 38 41 -17 12 -31 26 -31 31 0 14 41 8
68 -10z"/>
<path d="M8721 8024 c0 -11 3 -14 6 -6 3 7 2 16 -1 19 -3 4 -6 -2 -5 -13z"/>
<path d="M8561 7604 c0 -11 3 -14 6 -6 3 7 2 16 -1 19 -3 4 -6 -2 -5 -13z"/>
<path d="M9411 6394 c0 -11 3 -14 6 -6 3 7 2 16 -1 19 -3 4 -6 -2 -5 -13z"/>
<path d="M9397 6363 c-12 -11 -8 -51 6 -56 9 -3 12 5 9 29 -4 36 -5 38 -15 27z"/>
<path d="M9436 6188 c-8 -18 -19 -45 -25 -60 -6 -16 -16 -26 -23 -23 -12 5
-15 -18 -18 -145 -1 -14 -6 -38 -12 -53 -8 -21 -8 -31 1 -40 6 -6 11 -17 11
-25 0 -8 8 -26 19 -40 10 -15 20 -36 22 -46 7 -35 27 -29 27 9 0 23 -5 35 -14
35 -8 0 -14 8 -14 17 0 13 3 14 12 5 17 -17 58 -15 58 3 0 8 -7 15 -15 15 -8
0 -15 8 -15 18 0 9 -11 33 -23 52 -30 45 -39 78 -25 103 5 11 10 34 10 52 0
25 4 32 17 29 24 -6 35 6 47 54 9 35 9 46 -3 58 -20 19 -21 19 -37 -18z"/>
<path d="M9480 6061 c-22 -6 -26 -14 -30 -64 -5 -54 -4 -57 17 -57 19 0 23 6
23 29 0 17 5 33 10 36 6 3 10 -5 10 -19 0 -26 14 -41 29 -31 6 3 6 16 1 33 -4
15 -11 39 -14 55 -7 29 -7 29 -46 18z"/>
<path d="M9270 5781 c0 -5 5 -13 10 -16 6 -3 10 -2 10 4 0 5 -4 13 -10 16 -5
3 -10 2 -10 -4z"/>
<path d="M9307 5534 c-4 -4 -7 -21 -7 -38 0 -23 -3 -27 -9 -16 -6 8 -7 18 -4
24 3 5 1 6 -5 2 -15 -9 -16 -46 -2 -46 16 0 12 -57 -5 -64 -8 -3 -15 -13 -15
-22 0 -9 5 -13 13 -10 6 3 20 9 30 12 10 4 17 17 17 30 0 14 6 40 14 59 13 31
13 37 -2 55 -10 12 -21 18 -25 14z"/>
<path d="M9390 5236 c0 -8 6 -16 14 -19 10 -4 12 0 9 14 -6 22 -23 26 -23 5z"/>
<path d="M9586 5161 c-10 -11 -16 -27 -13 -35 4 -9 2 -18 -3 -21 -13 -8 -13
-65 0 -65 16 0 12 -27 -5 -34 -17 -6 -22 -96 -5 -96 6 0 10 4 10 9 0 4 23 31
50 59 28 28 51 57 52 64 1 7 2 33 2 58 1 25 4 52 6 60 8 25 -71 26 -94 1z"/>
<path d="M11710 3183 c8 -3 34 -19 59 -35 49 -31 84 -39 58 -14 -27 28 -82 56
-107 55 -15 0 -19 -3 -10 -6z"/>
<path d="M8145 9718 c-22 -5 -57 -22 -77 -39 l-38 -30 0 31 0 30 -80 0 -80 0
0 -200 0 -200 48 0 c26 0 62 -4 80 -9 l32 -10 0 95 c0 142 30 194 113 194 89
0 107 -35 107 -212 l0 -133 80 -26 80 -26 0 174 c0 96 -5 194 -11 217 -27 108
-138 171 -254 144z"/>
<path d="M8600 8996 c0 -9 5 -16 10 -16 6 0 10 4 10 9 0 6 -4 13 -10 16 -5 3
-10 -1 -10 -9z"/>
<path d="M8736 8895 c-8 -21 31 -40 49 -25 8 6 11 18 8 26 -7 19 -49 18 -57
-1z"/>
<path d="M8893 8796 c-32 -15 -28 -32 8 -40 39 -7 49 -1 49 30 0 26 -18 30
-57 10z"/>
<path d="M9040 8670 c-24 -24 -18 -40 15 -40 29 0 36 10 28 38 -7 27 -17 28
-43 2z"/>
<path d="M8950 8610 c0 -5 5 -10 10 -10 6 0 10 5 10 10 0 6 -4 10 -10 10 -5 0
-10 -4 -10 -10z"/>
<path d="M9090 8575 c0 -8 4 -15 9 -15 5 0 11 7 15 15 3 9 0 15 -9 15 -8 0
-15 -7 -15 -15z"/>
<path d="M9175 8530 c-3 -6 4 -14 17 -19 25 -9 46 8 25 21 -17 11 -35 10 -42
-2z"/>
<path d="M9206 8435 c4 -8 10 -15 14 -15 4 0 10 7 14 15 4 10 -1 15 -14 15
-13 0 -18 -5 -14 -15z"/>
<path d="M9300 8402 c0 -12 19 -26 26 -19 2 2 -2 10 -11 17 -9 8 -15 8 -15 2z"/>
<path d="M9110 8380 c0 -5 4 -10 9 -10 6 0 13 5 16 10 3 6 -1 10 -9 10 -9 0
-16 -4 -16 -10z"/>
<path d="M9410 8253 c0 -13 5 -23 10 -23 13 0 13 11 0 30 -8 12 -10 11 -10 -7z"/>
<path d="M9715 8096 c-18 -13 -18 -17 -6 -40 19 -34 27 -33 40 5 16 47 2 61
-34 35z"/>
<path d="M9492 8088 c5 -15 28 -18 29 -3 0 6 -7 12 -17 13 -10 3 -15 -1 -12
-10z"/>
<path d="M9712 8000 c3 -21 7 -25 33 -22 17 2 36 10 44 17 13 12 9 13 -23 8
-27 -4 -41 -2 -47 8 -7 10 -9 7 -7 -11z"/>
<path d="M9767 7908 c-22 -8 -26 -14 -21 -31 12 -40 21 -45 58 -33 22 6 30 13
23 18 -9 5 -9 10 1 20 33 33 -1 48 -61 26z"/>
<path d="M9770 7796 c0 -8 5 -18 10 -21 6 -3 10 -15 10 -26 0 -10 4 -19 8 -19
4 0 9 -17 9 -37 1 -21 6 -39 12 -41 6 -2 11 -15 11 -28 0 -19 5 -24 25 -24 31
0 32 12 1 45 -14 15 -22 33 -19 41 3 7 -2 21 -11 29 -10 11 -14 25 -10 41 7
26 -10 54 -32 54 -8 0 -14 -6 -14 -14z"/>
<path d="M9850 7720 c0 -5 7 -10 15 -10 8 0 15 5 15 10 0 6 -7 10 -15 10 -8 0
-15 -4 -15 -10z"/>
<path d="M9847 7583 c-2 -4 2 -23 10 -41 11 -28 16 -32 28 -22 19 16 19 30 1
30 -8 0 -13 7 -12 16 1 18 -19 31 -27 17z"/>
<path d="M9763 7504 c-20 -21 -16 -42 3 -22 9 9 15 21 13 26 -2 6 -9 4 -16 -4z"/>
<path d="M9826 7365 c-3 -8 -1 -15 4 -15 6 0 10 7 10 15 0 8 -2 15 -4 15 -2 0
-6 -7 -10 -15z"/>
<path d="M9745 7230 c3 -5 8 -10 11 -10 2 0 4 5 4 10 0 6 -5 10 -11 10 -5 0
-7 -4 -4 -10z"/>
<path d="M9835 6950 c-3 -5 1 -10 9 -10 9 0 16 5 16 10 0 6 -4 10 -9 10 -6 0
-13 -4 -16 -10z"/>
<path d="M9844 6495 c-3 -8 -3 -19 1 -25 9 -14 35 6 35 26 0 19 -29 18 -36 -1z"/>
</g>
</svg>
